# xmcd
#
# Track frame offsets:
#	150
#	10377
#	24202
#	37060
#	51512
#	61777
#	71017
#	81872
#	95922
#	108410
#	117075
#	132865
#	144222
#	156110
#	167845
#	178175
#	191020
#	202352
#
# Disc length: 2850 seconds
#
# Revision: 1
# Processed by: cddbd v1.5.2PL0 Copyright (c) Steve Scherf et al.
# Submitted via: audiograbber 1.83.01
#
DISCID=050b2012
DTITLE=Various Artist - Guys and Gals Of Country
DYEAR=1998
DGENRE=Country
TTITLE0=Patsy Cline - Three Cigarettes In An Ashtray
TTITLE1=Glen Campbell (LIVE) - Rhinestone Cowboy
TTITLE2=Dottie West - I Fall To Pieces
TTITLE3=Bobby Bare - For The Good Times
TTITLE4=Billie Jo Spears - It Makes No Difference Now
TTITLE5=Faron Young - Hello Walls
TTITLE6=Lynn Anderson - Someday Soon
TTITLE7=Bill Anderson - The Unicorn
TTITLE8=Bobby Bare - When Love Is Gone
TTITLE9=Waylon Jennings - Love's Gonna Live Here Again
TTITLE10=Jeannie C Riley - The Cotton Patch
TTITLE11=Hank Locklin - Send Me The Pillow You Dream On
TTITLE12=Diana Trask - It's A Man's World
TTITLE13=Johnny Cash - I Walk The Line
TTITLE14=Johnny Paycheck - A.11
TTITLE15=Billie Jo Spears - Dallas
TTITLE16=Johnny Horton - All For The Love Of A Girl
TTITLE17=Patsy Cline - Walking After Midnight
EXTD=YEAR: 1998 ID3G: 2
EXTT0=
EXTT1=
EXTT2=
EXTT3=
EXTT4=
EXTT5=
EXTT6=
EXTT7=
EXTT8=
EXTT9=
EXTT10=
EXTT11=
EXTT12=
EXTT13=
EXTT14=
EXTT15=
EXTT16=
EXTT17=
PLAYORDER=
